Coordinates
version=1
nRows=10
nColumns=40
inDegrees=yes

Units are S.I. units (second, meters, Newtons, ...)
If the header above contains a line with 'inDegrees', this indicates whether rotational values are in degrees (yes) or radians (no).

endheader
time	pelvis_tilt	pelvis_list	pelvis_rotation	pelvis_tx	pelvis_ty	pelvis_tz	hip_flexion_r	hip_adduction_r	hip_rotation_r	knee_angle_r	knee_angle_r_beta	ankle_angle_r	subtalar_angle_r	mtp_angle_r	hip_flexion_l	hip_adduction_l	hip_rotation_l	knee_angle_l	knee_angle_l_beta	ankle_angle_l	subtalar_angle_l	mtp_angle_l	lumbar_extension	lumbar_bending	lumbar_rotation	arm_flex_r	arm_add_r	arm_rot_r	elbow_flex_r	pro_sup_r	wrist_flex_r	wrist_dev_r	arm_flex_l	arm_add_l	arm_rot_l	elbow_flex_l	pro_sup_l	wrist_flex_l	wrist_dev_l
      0.91000000	      1.37018865	      9.47327544	    -87.26108012	      0.30322545	      0.86814879	      0.81110533	     18.79012542	    -12.62426674	     -9.09532758	     60.87999342	      1.06255633	    -17.42687158	      0.00000000	      0.00000000	     19.53741927	      4.35228812	     -2.04104047	     18.29492415	      0.31930666	     -0.03268107	      0.00000000	      0.00000000	      3.50423683	     -0.86437781	     -1.70197400	     -3.55627580	     -5.62583537	      5.87514747	     33.01449521	     89.19972816	    -23.83801175	      5.57121823	      1.19774675	    -10.05850820	     18.83754640	     36.17979032	     89.25117636	    -26.72164493	     -0.72019738
      0.92000000	      1.05961634	      9.46454472	    -87.09995120	      0.30478154	      0.86933465	      0.82014613	     20.17720114	    -12.59527923	     -9.45421896	     60.96960866	      1.06412041	    -15.77605337	      0.00000000	      0.00000000	     18.51466805	      4.16286493	     -1.95831717	     17.59038503	      0.30701014	      0.14168694	      0.00000000	      0.00000000	      3.42455565	     -0.38485343	     -2.23390135	     -4.05534847	     -5.67508683	      5.69970108	     32.19482561	     89.18308786	    -23.88908993	      5.78994867	      2.06928292	    -10.16803765	     19.00606103	     37.23331131	     89.25365111	    -26.78020148	     -0.91912045
      0.93000000	      0.76669369	      9.51057629	    -86.89269450	      0.30624944	      0.87035287	      0.82925522	     21.47376694	    -12.50702106	     -9.81575443	     60.67281129	      1.05894032	    -13.79704800	      0.00000000	      0.00000000	     17.51133151	      4.00506459	     -1.76069231	     16.80041569	      0.29322257	      0.33114220	      0.00000000	      0.00000000	      3.42863384	      0.05919121	     -2.83023109	     -4.57521314	     -5.67975202	      5.42942877	     31.43582667	     89.19183631	    -23.96959913	      6.00612502	      2.84959648	    -10.31287891	     19.18143902	     38.38021447	     89.26756923	    -26.84887457	     -1.12907940
      0.94000000	      0.51482585	      9.48115834	    -86.53904344	      0.30790239	      0.87131533	      0.83824812	     22.56315122	    -12.51802776	    -10.40280410	     60.08947079	      1.04875911	    -11.75247164	      0.00000000	      0.00000000	     16.50661119	      3.92186957	     -1.40532957	     16.15662990	      0.28198639	      0.47253815	      0.00000000	      0.00000000	      3.32567781	      0.45533125	     -3.56600093	     -5.13212847	     -5.71161063	      5.03495433	     30.93645918	     89.18542480	    -24.09537276	      6.20119038	      3.67184957	    -10.41690398	     19.16623316	     39.43195676	     89.26773063	    -27.00100807	     -1.31422032
      0.95000000	      0.17535370	      9.41759885	    -86.19149439	      0.30947174	      0.87217340	      0.84718073	     23.58460299	    -12.43704057	    -11.09035123	     59.25383720	      1.03417455	    -10.21938870	      0.00000000	      0.00000000	     15.45285824	      3.72020024	     -1.08385283	     15.45906967	      0.26981166	      0.66342995	      0.00000000	      0.00000000	      3.18456636	      0.95973078	     -4.24286133	     -5.70544407	     -5.75863145	      4.46475612	     30.52689362	     89.17633586	    -24.22494221	      6.34948530	      4.47878099	    -10.51783466	     19.14875320	     40.55456587	     89.27619365	    -27.13149081	     -1.50323397
      0.96000000	     -0.03727862	      9.51261163	    -86.07046874	      0.31067153	      0.87266233	      0.85612821	     24.82320612	    -12.39059633	    -11.53523191	     58.18648120	      1.01554568	     -9.30157836	      0.00000000	      0.00000000	     14.56628103	      3.58186251	     -1.12205831	     14.78667145	      0.25807610	      0.90511525	      0.00000000	      0.00000000	      3.23671489	      1.32043528	     -4.68884128	     -6.27842886	     -5.83730683	      4.09414486	     30.06845062	     89.15236617	    -24.29741401	      6.44549822	      5.23398717	    -10.68270886	     19.26690964	     41.70122629	     89.28238675	    -27.14439147	     -1.69158294
      0.97000000	     -0.29046886	      9.59684823	    -85.88039256	      0.31182135	      0.87295735	      0.86504613	     25.94059691	    -12.27236993	    -12.05292186	     56.89554785	      0.99301464	     -8.10557314	      0.00000000	      0.00000000	     13.66184375	      3.40736980	     -1.03071029	     14.07738078	      0.24569664	      1.13344776	      0.00000000	      0.00000000	      3.28778062	      1.72565114	     -5.21097845	     -6.86246365	     -5.90421859	      3.55833909	     29.76168452	     89.13621994	    -24.39749354	      6.49214099	      5.94946479	    -10.82342955	     19.24279797	     42.82137296	     89.28224834	    -27.16417030	     -1.86305864
      0.98000000	     -0.44284661	      9.68610061	    -85.70707674	      0.31299106	      0.87304306	      0.87382547	     27.01101439	    -12.23868188	    -12.56729051	     55.38075754	      0.96657656	     -7.20363712	      0.00000000	      0.00000000	     12.83164248	      3.33868788	     -0.97948675	     13.51613178	      0.23590100	      1.37243680	      0.00000000	      0.00000000	      3.31154556	      2.00583507	     -5.64220877	     -7.45963599	     -5.98997346	      3.06434728	     29.52396175	     89.11134385	    -24.48874187	      6.51431858	      6.70983684	    -10.91120523	     19.15968873	     43.92991944	     89.30110072	    -27.17371066	     -2.02550528
      0.99000000	     -1.07415259	      9.21130131	    -84.98984937	      0.31461630	      0.87378165	      0.88267539	     27.10022629	    -11.91139947	    -14.01921647	     53.45276574	      0.93292676	     -6.05959472	      0.00000000	      0.00000000	     11.40203022	      2.80489652	     -0.25856197	     12.84935900	      0.22426362	      1.75175083	      0.00000000	      0.00000000	      2.67360357	      2.85881236	     -6.63311041	     -8.04213964	     -5.99127251	      1.54775607	     29.81061495	     89.13598591	    -24.61546129	      6.34572494	      7.41126668	    -10.92188233	     18.57743184	     45.16821317	     89.30150323	    -27.01495672	     -2.10311363
      1.00000000	     -1.32768487	      8.99817838	    -84.75939874	      0.31558238	      0.87400221	      0.89158788	     27.61474911	    -11.73317199	    -14.82186548	     51.42398261	      0.89751781	     -5.38482968	      0.00000000	      0.00000000	     10.20603553	      2.57158221	     -0.14253834	     12.18340941	      0.21264061	      2.03969465	      0.00000000	      0.00000000	      2.34801054	      3.28314023	     -7.12724193	     -8.55384548	     -6.07238991	      0.88384451	     29.75049903	     89.12422915	    -24.53808765	      6.33634467	      8.09839654	    -11.03384250	     18.32770202	     46.34875090	     89.30371996	    -26.59169365	     -2.07196115
